<svg xmlns="http://www.w3.org/2000/svg" xmlns:xlink="http://www.w3.org/1999/xlink" version="1.1" x="0px" y="0px" viewBox="0 0 32 40" enable-background="new 0 0 32 32" xml:space="preserve"><g display="none"><rect x="-371.667" y="-125.318" display="inline" fill="#000000" width="416.333" height="207.667"/></g><g display="none"><g display="inline"><rect x="10.01" y="18.506" width="12" height="0.5"/><path d="M18.353,21.661c0,1.292-1.051,2.343-2.343,2.343c-1.291,0-2.342-1.051-2.342-2.343v-2.613h-0.5v2.613    c0,1.567,1.274,2.843,2.842,2.843s2.843-1.275,2.843-2.843v-2.613h-0.5V21.661z"/><path d="M13.222,12.634c0-1.13-0.676-2.099-1.644-2.535h2.901v-0.5H6.396v0.5h2.901c-0.968,0.436-1.644,1.405-1.644,2.535    c0,1.538,1.247,2.785,2.785,2.785C11.975,15.419,13.222,14.172,13.222,12.634z M8.152,12.634c0-1.26,1.025-2.285,2.285-2.285    s2.285,1.025,2.285,2.285s-1.025,2.285-2.285,2.285S8.152,13.894,8.152,12.634z"/><path d="M17.531,10.099h3.038c-0.968,0.436-1.644,1.405-1.644,2.535c0,1.538,1.247,2.785,2.785,2.785    c1.538,0,2.785-1.247,2.785-2.785c0-1.13-0.676-2.099-1.644-2.535h2.765v-0.5h-8.084V10.099z M23.994,12.634    c0,1.26-1.025,2.285-2.285,2.285s-2.285-1.025-2.285-2.285s1.025-2.285,2.285-2.285S23.994,11.374,23.994,12.634z"/><path d="M27.869-0.017H4.131C1.853-0.017,0,1.836,0,4.114v23.772c0,2.278,1.853,4.131,4.131,4.131h23.739    c2.278,0,4.131-1.853,4.131-4.131V4.114C32,1.836,30.147-0.017,27.869-0.017z M27.869,0.483c0.226,0,0.445,0.027,0.66,0.067    C25.514,2.365,20.906,3.446,16,3.446S6.486,2.365,3.471,0.55c0.215-0.039,0.434-0.067,0.66-0.067H27.869z M4.131,31.517    c-0.226,0-0.445-0.027-0.66-0.067c3.015-1.815,7.623-2.896,12.529-2.896s9.514,1.081,12.529,2.896    c-0.215,0.039-0.434,0.067-0.66,0.067H4.131z M31.5,27.886c0,1.539-0.961,2.847-2.313,3.375    c-3.076-2.008-7.981-3.207-13.187-3.207S5.889,29.253,2.813,31.261C1.461,30.733,0.5,29.425,0.5,27.886V4.114    c0-1.539,0.961-2.847,2.313-3.375C5.889,2.747,10.794,3.946,16,3.946s10.111-1.199,13.187-3.207    C30.539,1.267,31.5,2.575,31.5,4.114V27.886z"/></g></g><g display="none"><g display="inline"><path d="M10.01,19.256h2.908v2.405c0,1.705,1.387,3.093,3.092,3.093s3.093-1.388,3.093-3.093v-2.405h2.907v-1h-12V19.256z     M18.103,21.661c0,1.154-0.938,2.093-2.093,2.093c-1.153,0-2.092-0.938-2.092-2.093v-2.405h4.185V21.661z"/><path d="M13.222,12.634c0-0.948-0.475-1.782-1.199-2.285h2.455v-1H6.396v1h2.455c-0.723,0.503-1.199,1.338-1.199,2.285    c0,1.538,1.247,2.785,2.785,2.785C11.975,15.419,13.222,14.172,13.222,12.634z M8.652,12.634c0-0.984,0.801-1.785,1.785-1.785    s1.785,0.801,1.785,1.785s-0.801,1.785-1.785,1.785S8.652,13.618,8.652,12.634z"/><path d="M17.531,10.349h2.592c-0.723,0.503-1.199,1.338-1.199,2.285c0,1.538,1.247,2.785,2.785,2.785s2.785-1.247,2.785-2.785    c0-0.948-0.475-1.782-1.199-2.285h2.319v-1h-8.084V10.349z M21.71,14.419c-0.984,0-1.785-0.801-1.785-1.785    s0.801-1.785,1.785-1.785s1.785,0.801,1.785,1.785S22.694,14.419,21.71,14.419z"/><path d="M27.488-0.001H4.512C2.024-0.001,0,2.023,0,4.51V27.49c0,2.488,2.024,4.512,4.512,4.512h22.976    c2.488,0,4.512-2.024,4.512-4.512V4.51C32,2.023,29.976-0.001,27.488-0.001z M27.488,0.999c0.07,0,0.135,0.016,0.203,0.021    C24.811,2.643,20.541,3.604,16,3.604S7.189,2.643,4.308,1.019c0.069-0.004,0.134-0.021,0.203-0.021H27.488z M4.512,31.001    c-0.07,0-0.135-0.016-0.203-0.021c2.881-1.624,7.151-2.585,11.692-2.585s8.811,0.961,11.692,2.585    c-0.069,0.004-0.134,0.021-0.203,0.021H4.512z M31,27.49c0,1.377-0.8,2.557-1.955,3.133c-3.009-2.02-7.884-3.227-13.045-3.227    S5.963,28.602,2.955,30.622C1.8,30.047,1,28.867,1,27.49V4.51c0-1.377,0.8-2.557,1.955-3.133C5.963,3.398,10.839,4.604,16,4.604    s10.037-1.207,13.045-3.227C30.2,1.953,31,3.133,31,4.51V27.49z"/></g></g><g display="none"><g display="inline"><path d="M27.488,32.001c0.28,0,0.552-0.034,0.818-0.083c-3.039-1.724-7.532-2.743-12.306-2.743s-9.267,1.02-12.306,2.743    c0.266,0.049,0.538,0.083,0.818,0.083H27.488z"/><path d="M4.512-0.001c-0.28,0-0.552,0.034-0.818,0.083C6.733,1.805,11.226,2.824,16,2.824c4.775,0,9.268-1.019,12.306-2.743    c-0.266-0.049-0.538-0.083-0.818-0.083H4.512z"/><path d="M16.01,23.754c1.154,0,2.093-0.938,2.093-2.093v-2.405h-4.185v2.405C13.918,22.815,14.856,23.754,16.01,23.754z"/><circle cx="10.437" cy="12.634" r="1.785"/><circle cx="21.71" cy="12.634" r="1.785"/><path d="M29.531,0.511C26.352,2.585,21.327,3.824,16,3.824c-5.327,0-10.352-1.239-13.532-3.313C1.01,1.26,0,2.762,0,4.51V27.49    c0,1.749,1.01,3.251,2.468,4c3.18-2.075,8.205-3.314,13.532-3.314c5.327,0,10.352,1.239,13.531,3.314    c1.458-0.749,2.469-2.251,2.469-4V4.51C32,2.762,30.99,1.259,29.531,0.511z M7.652,12.634c0-0.948,0.475-1.782,1.199-2.285H6.396    v-1h8.083v1h-2.455c0.723,0.503,1.199,1.338,1.199,2.285c0,1.538-1.247,2.785-2.785,2.785C8.899,15.419,7.652,14.172,7.652,12.634    z M22.01,19.256h-2.907v2.405c0,1.705-1.388,3.093-3.093,3.093s-3.092-1.388-3.092-3.093v-2.405H10.01v-1h12V19.256z     M25.615,10.349h-2.319c0.723,0.503,1.199,1.338,1.199,2.285c0,1.538-1.247,2.785-2.785,2.785s-2.785-1.247-2.785-2.785    c0-0.948,0.475-1.782,1.199-2.285h-2.592v-1h8.084V10.349z"/></g></g><g><g><path d="M10.005,19.756h2.407v1.905c0,1.981,1.611,3.593,3.593,3.593s3.593-1.611,3.593-3.593v-1.905h2.407v-2h-12V19.756z     M17.598,21.661c0,0.878-0.715,1.593-1.593,1.593s-1.593-0.715-1.593-1.593v-1.905h3.186V21.661z"/><path d="M13.217,12.634c0-0.683-0.256-1.301-0.664-1.785h1.921v-2H6.391v2h1.92c-0.408,0.484-0.664,1.102-0.664,1.785    c0,1.538,1.247,2.785,2.785,2.785C11.97,15.419,13.217,14.172,13.217,12.634z"/><path d="M17.526,10.849h2.057c-0.408,0.484-0.664,1.102-0.664,1.785c0,1.538,1.247,2.785,2.785,2.785    c1.538,0,2.785-1.247,2.785-2.785c0-0.683-0.256-1.301-0.664-1.785h1.784v-2h-8.083V10.849z"/><path d="M27.488,0H4.512C2.024,0,0,2.024,0,4.512v22.977C0,29.976,2.024,32,4.512,32h22.977C29.976,32,32,29.976,32,27.488V4.512    C32,2.024,29.976,0,27.488,0z M25.116,2C22.585,2.979,19.376,3.54,16,3.54S9.415,2.979,6.884,2H25.116z M6.884,30    c2.531-0.979,5.739-1.54,9.116-1.54s6.585,0.561,9.116,1.54H6.884z M30,27.488c0,0.906-0.487,1.695-1.209,2.137    C25.809,27.643,21.038,26.46,16,26.46s-9.809,1.183-12.791,3.165C2.487,29.183,2,28.394,2,27.488V4.512    c0-0.906,0.487-1.695,1.209-2.137C6.191,4.357,10.962,5.54,16,5.54s9.809-1.183,12.791-3.165C29.513,2.817,30,3.606,30,4.512    V27.488z"/></g></g><text x="0" y="47" fill="#000000" font-size="5px" font-weight="bold" font-family="'Helvetica Neue', Helvetica, Arial-Unicode, Arial, Sans-serif">Created by Icons By Alfredo</text><text x="0" y="52" fill="#000000" font-size="5px" font-weight="bold" font-family="'Helvetica Neue', Helvetica, Arial-Unicode, Arial, Sans-serif">from the Noun Project</text></svg>